<?xml version="1.0" encoding="UTF-8"?>
<svg width="1000px" height="1000px" viewBox="0 0 1000 1000" version="1.1" xmlns="http://www.w3.org/2000/svg" xmlns:xlink="http://www.w3.org/1999/xlink">
    <title>Pattern</title>
    <g id="Pattern" stroke="none" stroke-width="1" fill="none" fill-rule="evenodd">
        <path d="M0,0 L100,0 L100,100 L0,100 L0,0 Z M200,0 L300,0 L300,100 L200,100 L200,0 Z M400,0 L500,0 L500,100 L400,100 L400,0 Z M600,0 L700,0 L700,100 L600,100 L600,0 Z M800,0 L900,0 L900,100 L800,100 L800,0 Z M100,100 L200,100 L200,200 L100,200 L100,100 Z M300,100 L400,100 L400,200 L300,200 L300,100 Z M500,100 L600,100 L600,200 L500,200 L500,100 Z M700,100 L800,100 L800,200 L700,200 L700,100 Z M900,100 L1000,100 L1000,200 L900,200 L900,100 Z M0,200 L100,200 L100,300 L0,300 L0,200 Z M200,200 L300,200 L300,300 L200,300 L200,200 Z M400,200 L500,200 L500,300 L400,300 L400,200 Z M600,200 L700,200 L700,300 L600,300 L600,200 Z M800,200 L900,200 L900,300 L800,300 L800,200 Z M100,300 L200,300 L200,400 L100,400 L100,300 Z M300,300 L400,300 L400,400 L300,400 L300,300 Z M500,300 L600,300 L600,400 L500,400 L500,300 Z M700,300 L800,300 L800,400 L700,400 L700,300 Z M900,300 L1000,300 L1000,400 L900,400 L900,300 Z M0,400 L100,400 L100,500 L0,500 L0,400 Z M200,400 L300,400 L300,500 L200,500 L200,400 Z M400,400 L500,400 L500,500 L400,500 L400,400 Z M600,400 L700,400 L700,500 L600,500 L600,400 Z M800,400 L900,400 L900,500 L800,500 L800,400 Z M100,500 L200,500 L200,600 L100,600 L100,500 Z M300,500 L400,500 L400,600 L300,600 L300,500 Z M500,500 L600,500 L600,600 L500,600 L500,500 Z M700,500 L800,500 L800,600 L700,600 L700,500 Z M900,500 L1000,500 L1000,600 L900,600 L900,500 Z M0,600 L100,600 L100,700 L0,700 L0,600 Z M200,600 L300,600 L300,700 L200,700 L200,600 Z M400,600 L500,600 L500,700 L400,700 L400,600 Z M600,600 L700,600 L700,700 L600,700 L600,600 Z M800,600 L900,600 L900,700 L800,700 L800,600 Z M100,700 L200,700 L200,800 L100,800 L100,700 Z M300,700 L400,700 L400,800 L300,800 L300,700 Z M500,700 L600,700 L600,800 L500,800 L500,700 Z M700,700 L800,700 L800,800 L700,800 L700,700 Z M900,700 L1000,700 L1000,800 L900,800 L900,700 Z M0,800 L100,800 L100,900 L0,900 L0,800 Z M200,800 L300,800 L300,900 L200,900 L200,800 Z M400,800 L500,800 L500,900 L400,900 L400,800 Z M600,800 L700,800 L700,900 L600,900 L600,800 Z M800,800 L900,800 L900,900 L800,900 L800,800 Z M100,900 L200,900 L200,1000 L100,1000 L100,900 Z M300,900 L400,900 L400,1000 L300,1000 L300,900 Z M500,900 L600,900 L600,1000 L500,1000 L500,900 Z M700,900 L800,900 L800,1000 L700,1000 L700,900 Z M900,900 L1000,900 L1000,1000 L900,1000 L900,900 Z" id="Combined-Shape" fill="#FFFFFF" opacity="0.2"></path>
    </g>
</svg>
