<?xml version="1.0" encoding="UTF-8"?>
<svg width="1000px" height="1000px" viewBox="0 0 1000 1000" version="1.1" xmlns="http://www.w3.org/2000/svg" xmlns:xlink="http://www.w3.org/1999/xlink">
    <title>Telegram Logo</title>
    <g id="Telegram_logo" stroke="none" stroke-width="1" fill="none" fill-rule="evenodd">
        <circle id="Background" fill="#29B6F6" cx="500" cy="500" r="500"></circle>
        <path d="M226.328419,494.722069 C372.088573,431.216685 469.284839,389.350049 517.917216,369.122161 C656.772535,311.36743 685.625481,301.334277 704.431427,301.003532 C708.567621,300.93067 717.815839,301.955743 723.806446,306.816707 C728.864797,310.92121 730.256552,316.46052 730.922551,320.357329 C731.588551,324.254139 732.417879,333.113868 731.758626,340.040898 C724.234007,419.102215 693.726323,610.964392 678.429661,699.515706 C672.044637,736.984906 659.380701,749.547434 647.072968,750.777088 C620.758122,753.448458 600.822417,733.642571 575.853231,717.06424 C537.480424,691.067442 516.478661,675.051134 479.264797,649.600572 C436.553681,620.204519 464.090702,604.302959 488.429452,579.017919 C495.028484,572.169298 595.377015,482.006286 597.410978,473.847064 C597.67498,472.858711 597.941315,469.360444 596.051965,467.658661 C594.162615,465.956879 591.517577,466.522662 589.554681,466.974453 C586.681856,467.622435 526.856463,508.066682 410.07863,588.307379 C387.929894,603.201369 368.206729,610.511419 350.909135,610.237528 C331.740498,609.936198 294.683541,600.100792 266.938193,591.844792 C232.856112,581.829106 205.577953,576.544577 207.431903,558.150384 C208.385384,548.718511 222.07357,539.132384 226.328419,494.722069 Z" id="Path-3" fill="#FFFFFF"></path>
    </g>
</svg>
